<svg width="511" height="26" viewBox="0 0 511 26" fill="none" xmlns="http://www.w3.org/2000/svg">
<path d="M1.53518 10.8267C2.84184 10.2 -1.87814 9.63999 0.881857 9.23999L3.74856 10.2667C3.25522 9.73335 4.80189 8.97337 5.08189 8.45337C6.25522 9.49337 1.61521 10.5067 4.98855 11.8267C5.78855 12.4533 8.25523 12.1866 9.50857 11.9733C6.7219 12.3333 9.6285 13.0134 10.7752 13.36C12.4685 12.8 15.2285 12.9333 15.9885 12.1733C16.2552 12.4267 17.6019 12.52 18.5086 12.36L18.5886 11.9867C20.6552 12.2533 17.9085 12.3733 18.4418 12.7467C19.9218 12.8267 22.2285 11.96 24.6419 11.9467C22.2285 11.9467 20.1885 11.5066 18.4552 11.1333C22.8552 10.3466 17.6152 9.23999 16.5886 8.31999C20.1752 8.65332 21.5485 9.32003 24.4685 9.8667C27.9752 9.01337 24.1352 7.12003 23.2285 7.02669C26.4819 7.49336 29.8818 8.62669 31.6152 9.02669C29.1885 7.60003 29.6019 7.11999 27.4019 5.98665C29.9885 5.07999 30.5218 6.11999 31.7752 6.65332C31.0552 6.53332 29.9352 6.45333 29.6819 6.74666C32.7486 6.57333 32.2685 8.83997 33.8819 9.79997C36.1352 9.15997 40.4552 8.82667 40.1485 7.50667V8.92C42.7885 9.24 41.5085 8.18664 41.9086 7.71997C42.9086 8.67997 41.6819 10.08 46.1485 10.4267C45.4419 8.14668 50.1219 10.2 49.9752 8.12004C52.0552 8.24004 53.0152 9.39998 55.1752 9.14665C57.5619 7.95998 51.8819 6.36004 50.5886 6.70671C47.5752 6.66671 50.9885 7.65331 49.7885 7.63997L46.9086 7.02669C48.5085 6.57336 51.6552 6.05336 51.2552 5.10669C54.1886 5.53336 48.9085 6.10663 52.1218 6.62663L54.0419 6.09334C57.2419 6.61334 53.3885 7.69336 57.5485 7.9467C54.7619 6.96003 62.0552 7.91998 61.8019 6.39998C61.9885 8.29332 69.2419 6.58668 70.1218 8.09334L67.9352 8.54663L68.4152 7.70671C66.0286 7.68004 64.0419 7.1867 61.5619 7.53337C63.5085 8.21337 60.9086 9.13332 63.1752 9.73332C67.4286 10.8266 64.2952 8.70664 64.8952 8.71997L68.2818 9.70671L66.0019 10.5334C68.6419 10.8534 72.2285 10.88 75.8552 10.7067C81.1752 9.48004 75.1752 9.6667 78.9885 8.53337C80.7085 8.92003 80.3085 9.38669 82.7219 9.18669C81.4285 9.76002 80.3885 9.01336 79.4685 9.10669C78.3219 10.3467 83.8285 9.56003 83.6152 10.6934C84.6018 10.2134 84.3886 9.7467 83.5886 9.28003C87.7219 9.64003 91.5219 9.28 93.1485 7.74666L95.0285 9.14665C102.282 8.47998 90.0152 7.91996 96.1218 6.87996C98.6552 6.67996 101.135 6.73332 102.242 7.31999L100.069 7.37337C101.749 8.14671 101.615 8.72 104.255 9.25334C106.135 9.12 105.135 8.14664 107.389 8.97331C113.095 8.23997 109.175 6.77333 108.269 5.41333C112.469 4.72 106.189 2.60002 109.015 3.26668L108.242 3.58667L112.535 5.58667C108.455 7.12 110.962 4.06665 109.322 5.65332L106.895 5.74666C107.655 6.56 113.242 6.09336 113.722 7.02669C113.775 6.54669 113.202 5.41331 110.695 5.30664L112.229 3.53337C113.682 3.3867 114.615 4.59998 115.429 3.81331C117.602 2.69331 112.322 1.90664 117.615 1.55998C123.242 1.30664 122.829 3.50663 126.602 3.29329C126.202 3.69329 125.269 3.62665 124.095 3.65332C125.309 4.27999 123.148 4.73332 125.188 5.23999C126.389 4.05332 130.335 4.21335 133.309 4.26668C132.535 3.60002 134.455 2.97334 133.522 2.58667C135.015 2.74667 136.402 2.96001 137.042 3.50667C131.029 4.41334 142.869 4.50665 138.202 5.73332C142.869 5.62665 143.749 4.46668 146.722 3.76001C146.509 3.40001 141.202 3.16002 145.415 2.52002C150.322 3.65335 144.589 4.31997 148.442 5.71997L145.375 6.25334C145.029 7.82667 150.722 6.48004 151.522 6.7867C153.402 6.33337 148.855 6.44 150.682 5.33333C153.495 4.89333 154.975 5.79999 156.762 5.15999C154.962 4.18666 156.095 4.54669 154.055 3.69336C160.695 3.45336 153.669 2.49329 158.709 1.62663C160.322 1.75996 159.349 2.72004 161.935 2.37337C160.469 3.57337 160.682 3.93331 156.469 4.14665C158.002 5.73331 161.989 3.52003 164.975 4.36003C162.629 4.60003 164.255 4.72002 161.695 4.60002C161.415 5.98668 160.482 6.24 162.869 7.41333C160.109 7.16 158.855 5.75997 154.949 6.30664C153.922 7.74664 159.802 7.2 159.935 9C161.935 9.84 166.669 8.83998 168.802 8.06665C172.682 8.98665 177.375 8.75996 180.402 10.2133C183.135 9.5333 190.149 10.6534 195.349 9.8667C196.095 9.01337 201.749 8.94668 198.469 8.26668C198.935 8.50668 203.295 8.38669 202.202 9.18669C201.735 8.94669 201.255 9.1867 200.322 9.20003L201.215 10.1466C203.709 9.57331 206.615 10.6934 209.002 9.9467C209.749 9.09336 204.415 9.69332 205.989 8.65332C208.402 10.0133 217.949 10.1067 220.935 9.31999C222.962 9.01332 223.135 7.74666 223.975 7.57332L227.402 7.50667C227.789 7.08001 227.815 6.59997 228.429 6.0533C230.095 5.6933 231.269 6.05331 232.322 6.22664C236.749 5.22664 234.322 4.30666 231.989 3.57332L229.482 4.12004C227.615 3.64004 224.989 3.99997 226.482 2.79997C227.775 2.86663 227.749 3.33334 228.215 3.58667L229.669 2.8667C231.189 3.28003 235.322 3.36002 234.922 4.26668C237.922 3.50668 241.429 4.11996 244.082 3.29329C242.269 3.93329 244.615 4.2 244.095 4.92L240.882 5.31999C243.469 5.45332 247.215 5.9867 249.629 5.28003C249.309 4.73336 249.202 4.54663 250.415 3.95996C248.709 4.78663 254.962 4.78664 251.242 5.89331C249.842 5.63998 248.549 5.55997 246.762 5.71997C245.629 6.9733 248.469 6.99996 250.069 7.62663C252.055 7.82663 255.949 8.05332 258.629 8.39998C260.309 8.06665 260.749 6.67997 263.655 7.38664C260.029 8.6533 267.189 9.18669 268.162 10.36C270.922 9.74669 272.695 11.2267 274.895 10.1867C273.749 9.80002 269.482 9.96002 268.375 9.10669C268.189 8.26669 269.242 6.82667 265.015 6.50667C270.069 5.92001 268.015 7.14668 270.349 7.42668L268.615 7.36003C269.415 7.68003 267.949 8.37333 269.482 8.33333C275.415 7.84 276.429 6.89337 280.415 5.70671C279.535 6.34671 281.389 6.87998 282.335 6.89331C286.175 6.01331 282.229 5.08 284.562 3.74666C285.922 4.49333 288.549 4.20001 287.682 4.84001C289.215 4.81334 288.415 4.4933 289.495 4.2133C290.509 4.8933 291.655 5.27996 293.775 5.2133C293.575 4.8533 293.255 4.29331 291.229 4.55998C293.495 4.18664 294.295 2.88003 293.295 2.20003L289.589 2.7867C287.882 1.96004 293.042 2.31998 292.882 1.47998C291.242 1.31998 290.015 1.89336 288.962 1.69336C289.975 0.746693 293.215 1.54667 295.109 1.58667C298.082 1.34667 296.962 0.48 297.002 0C302.095 1.32 291.202 1.79997 295.949 3.0533C297.762 4.0533 302.255 3.80002 305.442 3.93335C302.749 5.20002 305.789 5.6267 309.069 5.9467C304.815 6.08003 308.015 7.37337 302.989 6.70671L302.909 7.66667C305.042 7.6 307.549 7.12004 309.682 7.04004C309.229 6.78671 309.722 6.56001 309.015 6.42668L315.375 6.69336L314.709 6.08C318.615 5.86666 323.402 5.01331 325.735 5.30664C323.855 5.26664 322.242 6.25331 324.229 6.47998C325.389 6.86665 327.469 7.27997 329.255 7.1333C330.162 6.0133 336.895 5.84002 332.615 4.85335C338.122 5.26669 336.095 5.5333 341.375 6.0533L337.855 5.8667C337.442 6.76003 340.402 8.14663 337.055 8.79997C341.029 9.2533 338.549 10.8933 343.869 10.92C346.002 10.32 343.175 9.16003 340.189 9.02669C341.682 8.90669 343.029 8.3867 344.602 8.9467C345.709 8.1867 341.735 7.7467 341.882 7.45337C344.602 7.32004 341.842 7.93336 344.429 8.10669C348.962 8.97336 347.255 6.53336 351.575 7.02669C350.629 7.02669 348.962 7.34664 350.109 7.71997C355.895 7.50664 353.362 8.4933 357.575 8.79997C359.909 7.43997 358.815 6.10668 362.615 5.68001L360.495 5.77336C361.949 5.08002 363.629 4.72003 365.162 4.69336C373.108 5.50669 379.722 7.18663 387.935 7.79997L385.002 7.61336C384.029 8.09336 387.469 8.04002 387.442 8.52002L389.242 7.85335C389.789 8.76002 385.175 8.93337 386.309 9.7867C386.549 9.6667 387.148 9.6 387.495 9.66667L385.815 10.0267C389.615 9.54669 392.735 11.0533 395.522 9.42668C388.095 9.60001 394.242 6.77332 386.949 6.65332C390.815 6.83999 387.589 5.6267 387.962 5.20003C389.975 4.89337 388.989 5.86669 391.255 5.44002C391.162 4.77336 386.242 4.41331 388.402 3.81331C388.695 4.83998 390.709 4.53337 391.735 5.20003C393.402 4.84003 391.655 4.53334 392.375 4.17334C393.309 4.17334 393.882 4.60001 394.722 4.42668L394.055 3.81331C398.722 2.67998 395.535 4.72003 400.882 4.20003C401.069 5.04003 399.415 4.92002 397.189 4.85335C396.149 6.77335 404.162 6.57331 403.789 8.63997C408.829 8.77331 402.429 7.89332 406.709 7.23999C409.042 5.89332 403.495 5.9867 402.375 5.12004L406.815 4.15999C405.268 2.57333 402.495 3.18665 401.642 1.73332C404.975 1.53332 404.589 1.96001 408.002 2.42668C402.575 3.85334 410.415 3.35998 407.335 5.06665C409.842 4.55998 409.042 4.25333 412.709 4.15999C410.375 3.85333 412.589 2.82663 409.495 2.87996C414.469 2.87996 413.135 3.25329 418.095 3.29329C419.655 4.42663 413.122 4.88003 419.082 5.61336C420.375 5.61336 420.109 5.17335 419.362 5.18669C423.602 4.66669 418.509 6.64002 421.189 7.18669C423.042 7.30669 423.709 6.83999 422.935 6.57332C425.722 7.18666 424.189 7.97331 426.042 8.22664L425.202 8.37337C425.989 8.70671 423.842 10.3733 427.842 10.4133C430.749 10.3867 429.842 9.74669 429.909 9.36003C432.175 9.74669 433.922 9.41333 435.469 9C435.309 9.22667 435.482 9.4533 436.175 9.46663C440.029 9.83997 438.389 8.49332 439.828 8.31999C445.322 7.75999 439.135 10.4534 445.255 10.5334L438.148 10.88C438.442 11.44 438.602 12.2934 437.069 12.28C436.922 11.4267 434.402 10.7067 432.029 10.84C431.349 11.8267 438.389 11.9333 434.402 13C435.829 12.8267 437.802 13.0933 439.575 13.0133C437.802 11.96 445.255 12.8266 442.189 11.64C449.935 11.9333 451.082 11.2133 458.202 12.0533C457.562 11.4133 453.029 9.69331 449.322 10.1466L449.015 10.7333C444.375 9.98665 452.642 10.0933 451.802 9.08C457.522 10.7333 464.522 8.44 471.549 9.08C470.309 9.61333 471.695 9.93333 471.988 10.4933C469.162 10.3333 469.655 10.12 467.575 10.7734C467.962 11.52 469.655 11.2534 470.535 11.7867C471.269 12.6134 468.402 11.7866 467.402 12.2133C470.082 12.6666 469.829 12.7733 471.415 13.48C472.909 12.84 472.709 12.4667 473.855 11.7467C480.509 11.64 479.749 13.12 485.122 12.8534C482.135 13 486.522 12.0267 483.282 12.2667L485.069 12.1867C480.442 10.9734 472.508 10.9333 473.322 9C477.095 9.21333 479.815 10.3467 484.429 10.4L484.229 10.0267C487.562 9.96003 484.175 10.5067 484.962 10.8534C488.682 11.5334 489.789 8.99997 492.362 10.3866L488.549 10.68C491.429 11.4933 487.695 10.8134 488.389 12.12C493.509 13.1067 502.375 12.4534 509.682 13.28C507.602 13.9867 507.002 14.0267 504.242 14.1067C505.509 15.84 506.615 15.5867 505.282 17.1067L501.922 17.2133L501.882 18.84C502.802 18.8667 503.709 18.7733 504.522 18.6C505.002 19.6133 509.629 18.2267 509.869 19.2L507.002 19.0933C505.602 19.9467 508.975 19.8267 510.988 20.08C509.095 21.1467 504.735 20.12 500.682 20.0533C500.975 19.4666 496.909 18.2666 500.869 18.1333C500.815 17.4666 498.455 17.12 496.909 17.12C497.722 17.4534 493.869 18.92 497.522 19.3734C494.015 18.6134 495.962 19.3733 492.069 19C492.615 19.4533 485.269 18.96 485.722 20.36C484.482 19.76 485.789 18.28 481.282 18.2C482.389 17.2267 487.402 17.12 484.042 16.0533L486.229 16.72C489.362 16.28 485.375 15.7067 489.469 15.32C488.269 15.3867 485.829 14.8267 485.282 15.52C486.335 13.4667 479.215 14.4667 479.029 12.9467C478.122 13.56 476.935 13.6133 474.695 13.4267C475.002 13.9867 473.749 14.52 475.495 14.92C476.935 14.76 477.975 15 479.575 14.5466C478.682 16.5866 473.762 15.1466 470.042 15.5466C470.562 15.3866 470.709 15.1866 469.695 14.8933C467.415 15.1866 462.415 15.4933 463.842 16.48L452.429 16.12C452.375 16.6 454.055 16.3333 454.749 16.4933H448.389C446.895 17.1333 450.549 17.16 451.189 17.8L446.602 17.72L447.242 18.36C446.109 17.9334 440.842 17.72 439.575 18.7333C434.575 18.4266 434.655 16.3067 427.895 17.28C428.149 18.32 431.722 17.6266 433.295 18.3066C431.975 18.6666 427.949 17.9467 427.282 18.9467C422.442 18.3867 422.949 16.5466 420.589 15.56C416.629 15.5466 420.162 16.4533 420.015 16.7467C418.855 16.8267 416.895 14.9467 415.855 16.36C413.935 15.6534 412.829 14.7734 415.669 14.36C413.562 14.4267 410.562 13.9866 410.015 13.5466C411.762 15.04 407.629 14.2133 407.429 15.4933C404.242 15.84 397.282 16.52 394.202 15.0133L395.175 16.64H391.389C388.589 17.7866 394.829 17.5333 396.629 17.5466C391.602 17.9466 388.095 18.0267 383.482 18.2C384.815 17.7867 384.002 17.48 384.615 16.9333C382.989 16.3333 380.829 16.9067 379.175 16.7867C378.789 17.2134 379.015 17.5733 380.309 17.64L377.122 17.56C377.415 18.5866 375.869 18.64 379.042 19.2L376.095 19C372.869 19.4 376.282 19.84 377.082 20.1466L371.962 20.5334C370.109 20.0267 372.975 19.5733 369.429 19.4267C364.735 20.5333 358.695 20.3867 353.349 20.84L357.095 19.7467C353.869 20.12 354.469 18.44 353.442 17.76C350.469 18.0267 346.442 18.0533 343.922 18.56C346.829 19.28 345.669 20.52 343.015 21.32C336.962 21.6267 338.402 19.7733 335.002 19.2933C337.682 21.28 330.802 20.1067 331.429 21.2C323.735 21.3334 315.989 20.7867 308.069 21.0267C308.215 20.72 310.482 20.36 309.082 20.08C306.162 19.8267 304.789 20.7067 304.402 21.12C300.629 21.0267 298.442 20.44 297.189 19.8667C298.828 20.0267 298.975 19.7333 298.655 19.1733C294.895 19.0933 295.975 20.44 292.375 19.5733C291.469 20.6933 296.349 20.0267 296.029 21.1067C292.709 21.2667 290.629 20.8666 288.189 20.3866C287.655 21.1066 290.415 20.4934 288.602 21.12C283.455 20.7334 277.255 20.2533 273.389 19.96L272.375 20.9067C269.909 20.92 268.269 20.7733 267.122 20.3866C265.802 20.7866 266.842 20.9866 268.135 21.0666C264.829 21.24 260.762 20.6534 258.882 20.6134C259.202 21.16 260.762 20.64 261.322 21.0666C257.189 21.4133 251.895 19.7867 249.229 21.08C249.589 21.2133 249.989 21.2266 250.362 21.2133C244.229 21.4933 238.869 21.0533 232.215 21.2533C226.175 22.64 230.189 19.92 224.189 20.3467C224.269 22.8 216.029 20.92 213.522 21.52L214.309 21.12C211.295 20.2934 207.255 21.4266 205.215 22.2266C200.735 22.64 194.015 23.0266 189.442 22.2933L190.362 22.76C186.602 22.32 184.335 23.2533 180.562 22.8C180.669 22.9733 182.082 23.2133 180.655 23.4666C171.695 24.36 162.575 24.6133 153.442 24.68C148.842 24.6933 144.362 24.7067 139.669 24.6667C135.069 24.6 130.495 24.5466 125.935 24.48C117.295 24.4533 108.282 24.2534 99.2285 24.44C96.9619 24.48 94.6952 24.56 92.4418 24.6667C90.0552 24.76 87.6552 24.8533 85.2552 24.96C80.4419 25.12 75.6018 25.2267 70.7752 25.2667C51.4818 25.4533 32.5218 24.9333 15.8685 24.6C15.8685 24.6 11.8419 22.1733 7.98855 19.2667C4.16188 16.3733 0.48187 12.9733 1.56187 10.8133L1.53518 10.8267Z" fill="#E8F0FF"/>
</svg>
