<svg width="210" height="40" viewBox="0 0 210 40" fill="none" xmlns="http://www.w3.org/2000/svg">
<g opacity="0.6">
<path fill-rule="evenodd" clip-rule="evenodd" d="M27.142 39.9998C31.5298 39.9998 35.12 36.4097 35.12 32.0219V13.3556C35.12 7.58681 32.1878 5.35271 27.142 5.37765C24.9912 5.38827 18.4413 12.1973 12.0917 18.645C7.42399 23.3848 2.7031 27.6552 0.73692 30.2795C-0.985056 32.5778 -0.124518 39.9999 8.05077 39.9999H27.142V39.9998Z" fill="#5CBEFE"/>
<path fill-rule="evenodd" clip-rule="evenodd" d="M16.3427 8.23084e-05C11.9548 8.23084e-05 8.36475 3.59013 8.36475 7.97799V26.6443C8.36475 32.4131 11.2969 34.6472 16.3427 34.6222C18.4935 34.6116 25.0433 27.8026 31.3929 21.3548C36.0606 16.615 40.7816 12.3446 42.7477 9.72038C44.4696 7.42208 43.6092 0 35.4339 0H16.3427V8.23084e-05Z" fill="#EF5579"/>
<path fill-rule="evenodd" clip-rule="evenodd" d="M35.12 17.6513V13.3556C35.12 7.58681 32.1879 5.35271 27.142 5.37765C24.9912 5.38827 18.4414 12.1973 12.0918 18.645C10.835 19.9212 9.57443 21.1633 8.36475 22.3485V26.6443C8.36475 32.413 11.2969 34.6471 16.3427 34.6222C18.4935 34.6115 25.0433 27.8025 31.3929 21.3548C32.6497 20.0786 33.9103 18.8366 35.1199 17.6513H35.12Z" fill="#545DB6"/>
<path d="M63.1262 30.7875C61.2095 30.7875 59.521 30.395 58.0607 29.6101C56.6003 28.816 55.464 27.6843 54.6517 26.2148C53.8394 24.7453 53.4332 22.9838 53.4332 20.9302V20.1498C53.4332 18.224 53.8165 16.5218 54.5832 15.0432C55.3499 13.5555 56.4406 12.3917 57.8553 11.5521C59.2791 10.7032 60.9677 10.2788 62.9209 10.2788C64.2899 10.2788 65.5814 10.4659 66.7953 10.8401C68.0184 11.2143 69.1273 11.8213 70.1222 12.661V17.6307H66.9049L66.4668 14.6462C66.1564 14.4362 65.8279 14.2537 65.481 14.0985C65.1342 13.9434 64.76 13.8247 64.3584 13.7426C63.9568 13.6604 63.5233 13.6193 63.0578 13.6193C61.9808 13.6193 61.0498 13.8795 60.2649 14.3997C59.4799 14.92 58.873 15.6638 58.444 16.6313C58.015 17.5988 57.8005 18.7625 57.8005 20.1224V20.9302C57.8005 22.2445 58.0196 23.3945 58.4577 24.3803C58.9049 25.3569 59.5347 26.1144 60.347 26.6529C61.1593 27.1914 62.104 27.4607 63.181 27.4607C63.7469 27.4607 64.3128 27.4013 64.8786 27.2827C65.4445 27.1549 65.9739 26.9906 66.4668 26.7898L66.9186 23.9832H70.1359V28.8571C69.3509 29.3865 68.3606 29.8428 67.165 30.2262C65.9785 30.6004 64.6322 30.7875 63.1262 30.7875ZM79.117 30.7875C77.6201 30.7875 76.3378 30.4726 75.2699 29.8428C74.2111 29.2039 73.3988 28.3186 72.8329 27.1868C72.2762 26.046 71.9978 24.7271 71.9978 23.2302V22.9564C71.9978 21.4778 72.2762 20.1726 72.8329 19.0409C73.3988 17.9091 74.2111 17.0238 75.2699 16.3849C76.3286 15.7368 77.6019 15.4128 79.0896 15.4128C80.5773 15.4128 81.8506 15.7323 82.9093 16.3712C83.9681 17.0101 84.7758 17.8954 85.3326 19.0272C85.8984 20.1589 86.1814 21.4687 86.1814 22.9564V23.2302C86.1814 24.718 85.8984 26.0323 85.3326 27.1732C84.7758 28.3049 83.9681 29.1903 82.9093 29.8292C81.8597 30.4681 80.5956 30.7875 79.117 30.7875ZM79.117 27.447C79.7559 27.447 80.2716 27.2736 80.664 26.9267C81.0656 26.5799 81.3577 26.0916 81.5402 25.4618C81.7319 24.832 81.8277 24.0882 81.8277 23.2302V22.9564C81.8277 22.1258 81.7319 21.4002 81.5402 20.7796C81.3577 20.1498 81.0656 19.657 80.664 19.301C80.2624 18.945 79.7376 18.7671 79.0896 18.7671C78.4507 18.7671 77.9305 18.945 77.5289 19.301C77.1273 19.657 76.8352 20.1498 76.6527 20.7796C76.4701 21.4002 76.3788 22.1258 76.3788 22.9564V23.2302C76.3788 24.0882 76.4701 24.8366 76.6527 25.4755C76.8352 26.1053 77.1273 26.5936 77.5289 26.9404C77.9305 27.2781 78.4598 27.447 79.117 27.447ZM88.057 30.5V27.9125L90.1654 27.488V18.7123L88.057 18.2879V15.6866H96.2304V18.2879L94.5327 18.7123V21.1492H95.8881L97.8459 18.1099C98.4026 17.2246 98.9913 16.5629 99.612 16.1248C100.242 15.6775 101.008 15.4539 101.912 15.4539C102.451 15.4539 102.921 15.5224 103.322 15.6593C103.733 15.7962 104.116 15.9742 104.472 16.1932L103.719 19.2325C103.509 19.1687 103.35 19.123 103.24 19.0956C103.14 19.0683 103.026 19.0546 102.898 19.0546C102.597 19.0546 102.304 19.155 102.022 19.3558C101.739 19.5474 101.488 19.8076 101.269 20.1361L99.6257 22.6552L102.706 27.5839L104.746 27.9125V30.5H98.7084L95.9976 25.1743H94.5327V27.488L96.2304 27.9125V30.5H88.057ZM106.129 36.1953V33.5941L108.018 33.1697V18.7123L105.91 18.2879V15.6866H112.084L112.262 17.3843C112.682 16.7545 113.189 16.2708 113.782 15.9331C114.375 15.5862 115.096 15.4128 115.945 15.4128C117.122 15.4128 118.131 15.7368 118.971 16.3849C119.819 17.0329 120.467 17.9411 120.915 19.1093C121.371 20.2685 121.599 21.6239 121.599 23.1755V23.463C121.599 24.9233 121.371 26.2057 120.915 27.3101C120.467 28.4144 119.815 29.2724 118.957 29.8839C118.108 30.4863 117.086 30.7875 115.89 30.7875C115.124 30.7875 114.448 30.6506 113.864 30.3768C113.289 30.0938 112.792 29.6786 112.372 29.1309V33.1697L114.179 33.5941V36.1953H106.129ZM114.59 27.447C115.539 27.447 116.214 27.091 116.616 26.3791C117.017 25.6672 117.218 24.6951 117.218 23.463V23.1755C117.218 22.2993 117.127 21.5326 116.944 20.8754C116.762 20.2183 116.474 19.7072 116.082 19.3421C115.699 18.977 115.192 18.7944 114.562 18.7944C114.079 18.7944 113.65 18.904 113.275 19.123C112.901 19.3329 112.6 19.6478 112.372 20.0677V26.338C112.6 26.7031 112.901 26.9815 113.275 27.1732C113.659 27.3557 114.097 27.447 114.59 27.447ZM128.13 30.7875C126.669 30.7875 125.497 30.3905 124.611 29.5964C123.735 28.7932 123.297 27.7117 123.297 26.3517C123.297 25.4299 123.543 24.613 124.036 23.9011C124.538 23.1892 125.287 22.6324 126.281 22.2308C127.276 21.8292 128.513 21.6284 129.992 21.6284H131.758V20.6427C131.758 19.9855 131.566 19.4425 131.183 19.0135C130.809 18.5845 130.234 18.37 129.458 18.37C129.084 18.37 128.741 18.4157 128.431 18.5069C128.13 18.5982 127.851 18.7305 127.596 18.904L127.281 20.8207H124.159L124.105 16.8504C124.908 16.4396 125.766 16.0974 126.679 15.8236C127.591 15.5497 128.604 15.4128 129.718 15.4128C131.698 15.4128 133.264 15.8692 134.414 16.7819C135.564 17.6946 136.139 18.9952 136.139 20.6838V26.4886C136.139 26.6985 136.139 26.9039 136.139 27.1047C136.148 27.2964 136.171 27.4835 136.207 27.666L137.768 27.9125V30.5H132.511C132.401 30.2901 132.287 30.0436 132.168 29.7607C132.05 29.4778 131.968 29.1948 131.922 28.9119C131.457 29.4869 130.923 29.9432 130.32 30.2809C129.718 30.6187 128.988 30.7875 128.13 30.7875ZM129.389 27.625C129.846 27.625 130.288 27.5246 130.717 27.3238C131.146 27.123 131.493 26.8491 131.758 26.5023V24.257H130.019C129.252 24.257 128.664 24.4305 128.253 24.7773C127.851 25.1241 127.651 25.5531 127.651 26.0642C127.651 26.5571 127.806 26.9404 128.116 27.2142C128.435 27.488 128.86 27.625 129.389 27.625ZM142.245 30.5V27.9125L144.34 27.488V19.0135H142.053L141.903 20.9302H138.617V15.6866H154.525V20.9302H151.226L151.075 19.0135H148.734V27.488L150.815 27.9125V30.5H142.245ZM156.333 30.5V27.9125L158.427 27.488V18.7123L156.333 18.2879V15.6866H162.822H164.643V18.2879L162.822 18.7123V24.2433L162.904 24.257L167.217 15.6866H171.598H173.679V18.2879L171.598 18.7123V27.488L173.679 27.9125V30.5H165.382V27.9125L167.217 27.488V21.9296L167.135 21.9159L162.822 30.5H156.333ZM175.924 30.5V27.9125L178.032 27.488V18.7123L175.924 18.2879V15.6866H184.097V18.2879L182.4 18.7123V21.1492H183.755L185.713 18.1099C186.27 17.2246 186.858 16.5629 187.479 16.1248C188.109 15.6775 188.875 15.4539 189.779 15.4539C190.318 15.4539 190.788 15.5224 191.189 15.6593C191.6 15.7962 191.983 15.9742 192.339 16.1932L191.586 19.2325C191.376 19.1687 191.217 19.123 191.107 19.0956C191.007 19.0683 190.893 19.0546 190.765 19.0546C190.464 19.0546 190.171 19.155 189.889 19.3558C189.606 19.5474 189.355 19.8076 189.136 20.1361L187.493 22.6552L190.573 27.5839L192.613 27.9125V30.5H186.575L183.865 25.1743H182.4V27.488L184.097 27.9125V30.5H175.924ZM199.02 30.7875C197.56 30.7875 196.387 30.3905 195.502 29.5964C194.626 28.7932 194.187 27.7117 194.187 26.3517C194.187 25.4299 194.434 24.613 194.927 23.9011C195.429 23.1892 196.177 22.6324 197.172 22.2308C198.167 21.8292 199.404 21.6284 200.882 21.6284H202.648V20.6427C202.648 19.9855 202.457 19.4425 202.073 19.0135C201.699 18.5845 201.124 18.37 200.348 18.37C199.974 18.37 199.632 18.4157 199.321 18.5069C199.02 18.5982 198.742 18.7305 198.486 18.904L198.171 20.8207H195.05L194.995 16.8504C195.798 16.4396 196.656 16.0974 197.569 15.8236C198.482 15.5497 199.495 15.4128 200.608 15.4128C202.589 15.4128 204.154 15.8692 205.304 16.7819C206.454 17.6946 207.029 18.9952 207.029 20.6838V26.4886C207.029 26.6985 207.029 26.9039 207.029 27.1047C207.038 27.2964 207.061 27.4835 207.098 27.666L208.659 27.9125V30.5H203.401C203.292 30.2901 203.178 30.0436 203.059 29.7607C202.94 29.4778 202.858 29.1948 202.813 28.9119C202.347 29.4869 201.813 29.9432 201.211 30.2809C200.608 30.6187 199.878 30.7875 199.02 30.7875ZM200.28 27.625C200.736 27.625 201.179 27.5246 201.608 27.3238C202.037 27.123 202.384 26.8491 202.648 26.5023V24.257H200.91C200.143 24.257 199.554 24.4305 199.143 24.7773C198.742 25.1241 198.541 25.5531 198.541 26.0642C198.541 26.5571 198.696 26.9404 199.007 27.2142C199.326 27.488 199.75 27.625 200.28 27.625Z" fill="#343434"/>
</g>
</svg>
