<svg width="24" height="25" viewBox="0 0 24 25" fill="none" xmlns="http://www.w3.org/2000/svg">
<path d="M10.65 19.61V5.39C10.65 4.04 10.08 3.5 8.64 3.5H5.01C3.57 3.5 3 4.04 3 5.39V19.61C3 20.96 3.57 21.5 5.01 21.5H8.64C10.08 21.5 10.65 20.96 10.65 19.61Z" fill="white"/>
<path d="M21.0001 19.61V5.39C21.0001 4.04 20.4301 3.5 18.9901 3.5H15.3601C13.9301 3.5 13.3501 4.04 13.3501 5.39V19.61C13.3501 20.96 13.9201 21.5 15.3601 21.5H18.9901C20.4301 21.5 21.0001 20.96 21.0001 19.61Z" fill="white"/>
</svg>
