<svg width="36" height="40" viewBox="0 0 36 40" fill="none" xmlns="http://www.w3.org/2000/svg">
<circle cx="18.0002" cy="22.6257" r="15.9596" stroke="white" stroke-width="2.82829"/>
<path d="M18.0004 11.313C18.0004 10.8667 18.3626 10.5021 18.8079 10.5318C20.1233 10.6196 21.4176 10.9216 22.639 11.4276C24.1096 12.0367 25.4458 12.9295 26.5714 14.0551C27.6969 15.1807 28.5898 16.5169 29.1989 17.9875C29.7048 19.2089 30.0068 20.5031 30.0947 21.8186C30.1244 22.2639 29.7598 22.6261 29.3135 22.6261L18.8084 22.6261C18.3622 22.6261 18.0004 22.2643 18.0004 21.818V11.313Z" fill="white"/>
<path d="M8.42318 7.65268L8.48576 7.74697C8.60844 7.93177 8.85716 7.98312 9.043 7.862L10.0037 7.23591C10.1716 7.12645 10.2189 6.90146 10.1092 6.73367C10.0413 6.62983 10.0312 6.49849 10.0824 6.3855L10.2181 6.08617C10.2742 5.96249 10.2644 5.81891 10.192 5.70401L9.74129 4.98847C9.61833 4.79325 9.35715 4.74046 9.16802 4.87258L7.22025 6.2333C7.03737 6.36106 6.99264 6.61285 7.12033 6.79578L7.4718 7.29932C7.54738 7.40759 7.67108 7.4721 7.80312 7.4721H8.08655C8.22193 7.4721 8.34831 7.5399 8.42318 7.65268Z" fill="white"/>
<path d="M27.3883 7.65268L27.3258 7.74697C27.2031 7.93177 26.9544 7.98312 26.7685 7.862L25.8079 7.23591C25.6399 7.12645 25.5926 6.90146 25.7024 6.73367C25.7702 6.62983 25.7803 6.49849 25.7291 6.3855L25.5934 6.08617C25.5374 5.96249 25.5472 5.81891 25.6195 5.70401L26.0702 4.98847C26.1932 4.79325 26.4544 4.74046 26.6435 4.87258L28.5913 6.2333C28.7742 6.36106 28.8189 6.61285 28.6912 6.79578L28.3397 7.29932C28.2641 7.40759 28.1404 7.4721 28.0084 7.4721H27.725C27.5896 7.4721 27.4632 7.5399 27.3883 7.65268Z" fill="white"/>
<path d="M20.1586 5.16048L20.1586 5.22921C20.1586 5.54548 19.9022 5.80187 19.586 5.80187L16.1449 5.80187C15.7935 5.80187 15.5086 5.51699 15.5086 5.16558L15.5086 5.12613C15.5086 4.85159 15.3183 4.61373 15.0505 4.55346C14.7826 4.4932 14.5923 4.25534 14.5923 3.98081L14.5923 1.40089C14.5923 0.954597 14.9541 0.592799 15.4004 0.592799L20.3584 0.592796C20.8047 0.592796 21.1665 0.954586 21.1665 1.40088L21.1665 4.1526C21.1665 4.43092 20.9409 4.65654 20.6626 4.65654C20.3842 4.65654 20.1586 4.88217 20.1586 5.16048Z" fill="white"/>
</svg>
